<mxfile host="app.diagrams.net" modified="2022-12-12T03:25:04.167Z" agent="5.0 (Macintosh; Intel Mac OS X 10_15_7) AppleWebKit/537.36 (KHTML, like Gecko) Chrome/108.0.0.0 Safari/537.36" version="20.6.0" etag="3qr_1B25yk7DdyVV7JMB" type="github">
  <diagram id="yhl7Gm-dPyubud74YQ2W" name="第 1 页">
    <mxGraphModel dx="1018" dy="732" grid="1" gridSize="10" guides="1" tooltips="1" connect="1" arrows="1" fold="1" page="1" pageScale="1" pageWidth="827" pageHeight="1169" math="0" shadow="0">
      <root>
        <mxCell id="0" />
        <mxCell id="1" parent="0" />
        <mxCell id="E4Qt2kBJ6KLRx3LFfBMv-45" value="" style="rounded=0;whiteSpace=wrap;html=1;sketch=1;hachureGap=4;jiggle=2;fontFamily=Architects Daughter;fontSource=https%3A%2F%2Ffonts.googleapis.com%2Fcss%3Ffamily%3DArchitects%2BDaughter;fontSize=20;fillColor=#d5e8d4;strokeColor=#82b366;" vertex="1" parent="1">
          <mxGeometry x="220" y="320" width="500" height="320" as="geometry" />
        </mxCell>
        <mxCell id="E4Qt2kBJ6KLRx3LFfBMv-46" value="" style="line;strokeWidth=1;direction=south;html=1;sketch=1;hachureGap=4;jiggle=2;fontFamily=Architects Daughter;fontSource=https%3A%2F%2Ffonts.googleapis.com%2Fcss%3Ffamily%3DArchitects%2BDaughter;fontSize=20;strokeColor=#82b366;fillColor=#d5e8d4;" vertex="1" parent="1">
          <mxGeometry x="470" y="320" width="10" height="320" as="geometry" />
        </mxCell>
        <mxCell id="E4Qt2kBJ6KLRx3LFfBMv-48" value="" style="line;strokeWidth=1;html=1;perimeter=backbonePerimeter;points=[];outlineConnect=0;sketch=1;hachureGap=4;jiggle=2;fontFamily=Architects Daughter;fontSource=https%3A%2F%2Ffonts.googleapis.com%2Fcss%3Ffamily%3DArchitects%2BDaughter;fontSize=20;strokeColor=#82b366;fillColor=#d5e8d4;" vertex="1" parent="1">
          <mxGeometry x="220" y="420" width="500" height="10" as="geometry" />
        </mxCell>
        <mxCell id="E4Qt2kBJ6KLRx3LFfBMv-49" value="&lt;font style=&quot;font-size: 24px;&quot;&gt;存储混淆pgcId的字段&lt;/font&gt;" style="text;html=1;strokeColor=none;fillColor=none;align=center;verticalAlign=middle;whiteSpace=wrap;rounded=0;sketch=1;hachureGap=4;jiggle=2;strokeWidth=1;fontFamily=Architects Daughter;fontSource=https%3A%2F%2Ffonts.googleapis.com%2Fcss%3Ffamily%3DArchitects%2BDaughter;fontSize=20;" vertex="1" parent="1">
          <mxGeometry x="230" y="350" width="230" height="60" as="geometry" />
        </mxCell>
        <mxCell id="E4Qt2kBJ6KLRx3LFfBMv-52" value="&lt;font color=&quot;#ff6666&quot; style=&quot;font-size: 24px;&quot;&gt;存储原始pgcId的字段&lt;/font&gt;" style="text;html=1;strokeColor=none;fillColor=none;align=center;verticalAlign=middle;whiteSpace=wrap;rounded=0;sketch=1;hachureGap=4;jiggle=2;strokeWidth=1;fontFamily=Architects Daughter;fontSource=https%3A%2F%2Ffonts.googleapis.com%2Fcss%3Ffamily%3DArchitects%2BDaughter;fontSize=20;" vertex="1" parent="1">
          <mxGeometry x="485" y="350" width="235" height="60" as="geometry" />
        </mxCell>
        <mxCell id="E4Qt2kBJ6KLRx3LFfBMv-53" value="" style="line;strokeWidth=1;html=1;perimeter=backbonePerimeter;points=[];outlineConnect=0;sketch=1;hachureGap=4;jiggle=2;fontFamily=Architects Daughter;fontSource=https%3A%2F%2Ffonts.googleapis.com%2Fcss%3Ffamily%3DArchitects%2BDaughter;fontSize=20;strokeColor=#82b366;fillColor=#d5e8d4;" vertex="1" parent="1">
          <mxGeometry x="220" y="530" width="500" height="10" as="geometry" />
        </mxCell>
        <mxCell id="E4Qt2kBJ6KLRx3LFfBMv-54" value="&lt;font color=&quot;#ff6666&quot;&gt;102553&lt;/font&gt;" style="text;strokeColor=none;fillColor=none;html=1;fontSize=24;fontStyle=1;verticalAlign=middle;align=center;sketch=1;hachureGap=4;jiggle=2;strokeWidth=1;fontFamily=Architects Daughter;fontSource=https%3A%2F%2Ffonts.googleapis.com%2Fcss%3Ffamily%3DArchitects%2BDaughter;" vertex="1" parent="1">
          <mxGeometry x="552.5" y="470" width="100" height="40" as="geometry" />
        </mxCell>
        <mxCell id="E4Qt2kBJ6KLRx3LFfBMv-55" value="&lt;font color=&quot;#ff6666&quot;&gt;102602&lt;/font&gt;" style="text;strokeColor=none;fillColor=none;html=1;fontSize=24;fontStyle=1;verticalAlign=middle;align=center;sketch=1;hachureGap=4;jiggle=2;strokeWidth=1;fontFamily=Architects Daughter;fontSource=https%3A%2F%2Ffonts.googleapis.com%2Fcss%3Ffamily%3DArchitects%2BDaughter;" vertex="1" parent="1">
          <mxGeometry x="552.5" y="567.5" width="100" height="40" as="geometry" />
        </mxCell>
        <mxCell id="E4Qt2kBJ6KLRx3LFfBMv-56" value="1659433749" style="text;strokeColor=none;fillColor=none;html=1;fontSize=24;fontStyle=1;verticalAlign=middle;align=center;sketch=1;hachureGap=4;jiggle=2;strokeWidth=1;fontFamily=Architects Daughter;fontSource=https%3A%2F%2Ffonts.googleapis.com%2Fcss%3Ffamily%3DArchitects%2BDaughter;" vertex="1" parent="1">
          <mxGeometry x="294" y="567.5" width="120" height="45" as="geometry" />
        </mxCell>
        <mxCell id="E4Qt2kBJ6KLRx3LFfBMv-57" value="1657468177" style="text;strokeColor=none;fillColor=none;html=1;fontSize=24;fontStyle=1;verticalAlign=middle;align=center;sketch=1;hachureGap=4;jiggle=2;strokeWidth=1;fontFamily=Architects Daughter;fontSource=https%3A%2F%2Ffonts.googleapis.com%2Fcss%3Ffamily%3DArchitects%2BDaughter;" vertex="1" parent="1">
          <mxGeometry x="295" y="470" width="100" height="40" as="geometry" />
        </mxCell>
        <mxCell id="E4Qt2kBJ6KLRx3LFfBMv-58" value="&lt;font color=&quot;#ff6666&quot;&gt;新增字段&lt;/font&gt;" style="ellipse;shape=cloud;whiteSpace=wrap;html=1;sketch=1;hachureGap=4;jiggle=2;strokeColor=#6c8ebf;strokeWidth=1;fontFamily=Architects Daughter;fontSource=https%3A%2F%2Ffonts.googleapis.com%2Fcss%3Ffamily%3DArchitects%2BDaughter;fontSize=24;fillColor=#83BBFC;" vertex="1" parent="1">
          <mxGeometry x="760" y="180" width="243" height="160" as="geometry" />
        </mxCell>
        <mxCell id="E4Qt2kBJ6KLRx3LFfBMv-59" value="" style="curved=1;endArrow=classic;html=1;rounded=0;sketch=1;hachureGap=4;jiggle=2;fontFamily=Architects Daughter;fontSource=https%3A%2F%2Ffonts.googleapis.com%2Fcss%3Ffamily%3DArchitects%2BDaughter;fontSize=24;fontColor=#FF6666;exitX=0.8;exitY=-0.008;exitDx=0;exitDy=0;exitPerimeter=0;strokeWidth=2;fillColor=#dae8fc;strokeColor=#6c8ebf;shadow=0;" edge="1" parent="1" source="E4Qt2kBJ6KLRx3LFfBMv-45">
          <mxGeometry width="50" height="50" relative="1" as="geometry">
            <mxPoint x="640" y="310" as="sourcePoint" />
            <mxPoint x="770" y="260" as="targetPoint" />
            <Array as="points">
              <mxPoint x="690" y="310" />
              <mxPoint x="640" y="260" />
            </Array>
          </mxGeometry>
        </mxCell>
      </root>
    </mxGraphModel>
  </diagram>
</mxfile>
